<mxfile host="app.diagrams.net" modified="2024-04-05T18:55:47.348Z" agent="Mozilla/5.0 (Windows NT 10.0; Win64; x64) AppleWebKit/537.36 (KHTML, like Gecko) Chrome/121.0.0.0 Safari/537.36 OPR/107.0.0.0" etag="I01DosghznzwxVjw8Q3P" version="24.2.2" type="device">
  <diagram name="Page-1" id="eKAEIkwEprdjkknzw8Wy">
    <mxGraphModel dx="1233" dy="1360" grid="0" gridSize="10" guides="1" tooltips="1" connect="1" arrows="1" fold="1" page="0" pageScale="1" pageWidth="850" pageHeight="1100" math="0" shadow="0">
      <root>
        <mxCell id="0" />
        <mxCell id="1" parent="0" />
        <mxCell id="ZgNC-Hb89PlPjt8DxBCT-39" style="edgeStyle=none;curved=1;rounded=0;orthogonalLoop=1;jettySize=auto;html=1;exitX=0.75;exitY=0;exitDx=0;exitDy=0;entryX=1;entryY=0.5;entryDx=0;entryDy=0;fontSize=12;startSize=8;endSize=8;" parent="1" source="ZgNC-Hb89PlPjt8DxBCT-1" target="ZgNC-Hb89PlPjt8DxBCT-3" edge="1">
          <mxGeometry relative="1" as="geometry" />
        </mxCell>
        <mxCell id="ZgNC-Hb89PlPjt8DxBCT-40" style="edgeStyle=none;curved=1;rounded=0;orthogonalLoop=1;jettySize=auto;html=1;exitX=0.5;exitY=0;exitDx=0;exitDy=0;entryX=1;entryY=0.5;entryDx=0;entryDy=0;fontSize=12;startSize=8;endSize=8;" parent="1" source="ZgNC-Hb89PlPjt8DxBCT-1" target="ZgNC-Hb89PlPjt8DxBCT-4" edge="1">
          <mxGeometry relative="1" as="geometry" />
        </mxCell>
        <mxCell id="ZgNC-Hb89PlPjt8DxBCT-42" style="edgeStyle=none;curved=1;rounded=0;orthogonalLoop=1;jettySize=auto;html=1;exitX=0.25;exitY=0;exitDx=0;exitDy=0;entryX=1;entryY=0.5;entryDx=0;entryDy=0;fontSize=12;startSize=8;endSize=8;" parent="1" source="ZgNC-Hb89PlPjt8DxBCT-1" target="ZgNC-Hb89PlPjt8DxBCT-7" edge="1">
          <mxGeometry relative="1" as="geometry" />
        </mxCell>
        <mxCell id="ZgNC-Hb89PlPjt8DxBCT-43" style="edgeStyle=none;curved=1;rounded=0;orthogonalLoop=1;jettySize=auto;html=1;exitX=0;exitY=0;exitDx=0;exitDy=0;entryX=1;entryY=0.5;entryDx=0;entryDy=0;fontSize=12;startSize=8;endSize=8;" parent="1" source="ZgNC-Hb89PlPjt8DxBCT-1" target="ZgNC-Hb89PlPjt8DxBCT-6" edge="1">
          <mxGeometry relative="1" as="geometry" />
        </mxCell>
        <mxCell id="ZgNC-Hb89PlPjt8DxBCT-44" style="edgeStyle=none;curved=1;rounded=0;orthogonalLoop=1;jettySize=auto;html=1;exitX=0;exitY=0.25;exitDx=0;exitDy=0;entryX=1;entryY=0.5;entryDx=0;entryDy=0;fontSize=12;startSize=8;endSize=8;" parent="1" source="ZgNC-Hb89PlPjt8DxBCT-1" target="ZgNC-Hb89PlPjt8DxBCT-8" edge="1">
          <mxGeometry relative="1" as="geometry" />
        </mxCell>
        <mxCell id="ZgNC-Hb89PlPjt8DxBCT-45" style="edgeStyle=none;curved=1;rounded=0;orthogonalLoop=1;jettySize=auto;html=1;exitX=0;exitY=0.5;exitDx=0;exitDy=0;entryX=1;entryY=0.5;entryDx=0;entryDy=0;fontSize=12;startSize=8;endSize=8;" parent="1" source="ZgNC-Hb89PlPjt8DxBCT-1" target="ZgNC-Hb89PlPjt8DxBCT-9" edge="1">
          <mxGeometry relative="1" as="geometry" />
        </mxCell>
        <mxCell id="ZgNC-Hb89PlPjt8DxBCT-46" style="edgeStyle=none;curved=1;rounded=0;orthogonalLoop=1;jettySize=auto;html=1;exitX=0;exitY=0.75;exitDx=0;exitDy=0;entryX=1;entryY=0.5;entryDx=0;entryDy=0;fontSize=12;startSize=8;endSize=8;" parent="1" source="ZgNC-Hb89PlPjt8DxBCT-1" target="ZgNC-Hb89PlPjt8DxBCT-10" edge="1">
          <mxGeometry relative="1" as="geometry" />
        </mxCell>
        <mxCell id="ZgNC-Hb89PlPjt8DxBCT-47" style="edgeStyle=none;curved=1;rounded=0;orthogonalLoop=1;jettySize=auto;html=1;exitX=0;exitY=1;exitDx=0;exitDy=0;entryX=1;entryY=0.5;entryDx=0;entryDy=0;fontSize=12;startSize=8;endSize=8;" parent="1" source="ZgNC-Hb89PlPjt8DxBCT-1" target="ZgNC-Hb89PlPjt8DxBCT-11" edge="1">
          <mxGeometry relative="1" as="geometry" />
        </mxCell>
        <mxCell id="ZgNC-Hb89PlPjt8DxBCT-48" style="edgeStyle=none;curved=1;rounded=0;orthogonalLoop=1;jettySize=auto;html=1;exitX=0.25;exitY=1;exitDx=0;exitDy=0;entryX=1;entryY=0.5;entryDx=0;entryDy=0;fontSize=12;startSize=8;endSize=8;" parent="1" source="ZgNC-Hb89PlPjt8DxBCT-1" target="ZgNC-Hb89PlPjt8DxBCT-12" edge="1">
          <mxGeometry relative="1" as="geometry" />
        </mxCell>
        <mxCell id="ZgNC-Hb89PlPjt8DxBCT-49" style="edgeStyle=none;curved=1;rounded=0;orthogonalLoop=1;jettySize=auto;html=1;exitX=0.5;exitY=1;exitDx=0;exitDy=0;entryX=1;entryY=0.5;entryDx=0;entryDy=0;fontSize=12;startSize=8;endSize=8;" parent="1" source="ZgNC-Hb89PlPjt8DxBCT-1" target="ZgNC-Hb89PlPjt8DxBCT-13" edge="1">
          <mxGeometry relative="1" as="geometry" />
        </mxCell>
        <mxCell id="ZgNC-Hb89PlPjt8DxBCT-50" style="edgeStyle=none;curved=1;rounded=0;orthogonalLoop=1;jettySize=auto;html=1;exitX=0.75;exitY=1;exitDx=0;exitDy=0;entryX=1;entryY=0.5;entryDx=0;entryDy=0;fontSize=12;startSize=8;endSize=8;" parent="1" source="ZgNC-Hb89PlPjt8DxBCT-1" target="ZgNC-Hb89PlPjt8DxBCT-19" edge="1">
          <mxGeometry relative="1" as="geometry" />
        </mxCell>
        <mxCell id="ZgNC-Hb89PlPjt8DxBCT-51" style="edgeStyle=none;curved=1;rounded=0;orthogonalLoop=1;jettySize=auto;html=1;exitX=1;exitY=1;exitDx=0;exitDy=0;entryX=1;entryY=0.5;entryDx=0;entryDy=0;fontSize=12;startSize=8;endSize=8;" parent="1" source="ZgNC-Hb89PlPjt8DxBCT-1" target="ZgNC-Hb89PlPjt8DxBCT-16" edge="1">
          <mxGeometry relative="1" as="geometry" />
        </mxCell>
        <mxCell id="ZgNC-Hb89PlPjt8DxBCT-1" value="Users" style="rounded=0;whiteSpace=wrap;html=1;" parent="1" vertex="1">
          <mxGeometry x="171" y="177" width="120" height="60" as="geometry" />
        </mxCell>
        <mxCell id="ZgNC-Hb89PlPjt8DxBCT-3" value="&lt;u&gt;id&lt;/u&gt;" style="ellipse;whiteSpace=wrap;html=1;" parent="1" vertex="1">
          <mxGeometry x="-4" y="-66" width="70" height="40" as="geometry" />
        </mxCell>
        <mxCell id="ZgNC-Hb89PlPjt8DxBCT-4" value="&lt;u&gt;username&lt;/u&gt;" style="ellipse;whiteSpace=wrap;html=1;" parent="1" vertex="1">
          <mxGeometry x="-4" y="-20" width="70" height="40" as="geometry" />
        </mxCell>
        <mxCell id="ZgNC-Hb89PlPjt8DxBCT-6" value="userpassword" style="ellipse;whiteSpace=wrap;html=1;" parent="1" vertex="1">
          <mxGeometry x="-2" y="77" width="70" height="40" as="geometry" />
        </mxCell>
        <mxCell id="ZgNC-Hb89PlPjt8DxBCT-7" value="&lt;u&gt;email_address&lt;/u&gt;" style="ellipse;whiteSpace=wrap;html=1;" parent="1" vertex="1">
          <mxGeometry x="-4" y="26" width="70" height="40" as="geometry" />
        </mxCell>
        <mxCell id="ZgNC-Hb89PlPjt8DxBCT-8" value="age" style="ellipse;whiteSpace=wrap;html=1;" parent="1" vertex="1">
          <mxGeometry x="-2" y="128" width="70" height="40" as="geometry" />
        </mxCell>
        <mxCell id="ZgNC-Hb89PlPjt8DxBCT-9" value="weight" style="ellipse;whiteSpace=wrap;html=1;" parent="1" vertex="1">
          <mxGeometry x="-2" y="177" width="70" height="40" as="geometry" />
        </mxCell>
        <mxCell id="ZgNC-Hb89PlPjt8DxBCT-10" value="height" style="ellipse;whiteSpace=wrap;html=1;" parent="1" vertex="1">
          <mxGeometry x="-2" y="226" width="70" height="40" as="geometry" />
        </mxCell>
        <mxCell id="ZgNC-Hb89PlPjt8DxBCT-11" value="fitness_goal" style="ellipse;whiteSpace=wrap;html=1;" parent="1" vertex="1">
          <mxGeometry x="-4" y="277" width="70" height="40" as="geometry" />
        </mxCell>
        <mxCell id="ZgNC-Hb89PlPjt8DxBCT-12" value="role" style="ellipse;whiteSpace=wrap;html=1;" parent="1" vertex="1">
          <mxGeometry x="-2" y="321" width="70" height="40" as="geometry" />
        </mxCell>
        <mxCell id="ZgNC-Hb89PlPjt8DxBCT-13" value="bmi" style="ellipse;whiteSpace=wrap;html=1;" parent="1" vertex="1">
          <mxGeometry x="1" y="372" width="70" height="40" as="geometry" />
        </mxCell>
        <mxCell id="ZgNC-Hb89PlPjt8DxBCT-16" value="" style="ellipse;whiteSpace=wrap;html=1;" parent="1" vertex="1">
          <mxGeometry x="-8" y="468" width="82" height="48" as="geometry" />
        </mxCell>
        <mxCell id="ZgNC-Hb89PlPjt8DxBCT-17" value="exercises" style="ellipse;whiteSpace=wrap;html=1;" parent="1" vertex="1">
          <mxGeometry x="-2" y="472" width="70" height="40" as="geometry" />
        </mxCell>
        <mxCell id="ZgNC-Hb89PlPjt8DxBCT-19" value="" style="ellipse;whiteSpace=wrap;html=1;" parent="1" vertex="1">
          <mxGeometry x="-8" y="418" width="82" height="48" as="geometry" />
        </mxCell>
        <mxCell id="ZgNC-Hb89PlPjt8DxBCT-21" value="achivements" style="ellipse;whiteSpace=wrap;html=1;" parent="1" vertex="1">
          <mxGeometry x="-2" y="422" width="70" height="40" as="geometry" />
        </mxCell>
        <mxCell id="ZgNC-Hb89PlPjt8DxBCT-63" style="edgeStyle=none;curved=1;rounded=0;orthogonalLoop=1;jettySize=auto;html=1;exitX=0.75;exitY=0;exitDx=0;exitDy=0;entryX=1;entryY=0.5;entryDx=0;entryDy=0;fontSize=12;startSize=8;endSize=8;" parent="1" source="ZgNC-Hb89PlPjt8DxBCT-52" target="ZgNC-Hb89PlPjt8DxBCT-56" edge="1">
          <mxGeometry relative="1" as="geometry" />
        </mxCell>
        <mxCell id="ZgNC-Hb89PlPjt8DxBCT-64" style="edgeStyle=none;curved=1;rounded=0;orthogonalLoop=1;jettySize=auto;html=1;exitX=0.5;exitY=0;exitDx=0;exitDy=0;entryX=1;entryY=0.5;entryDx=0;entryDy=0;fontSize=12;startSize=8;endSize=8;" parent="1" source="ZgNC-Hb89PlPjt8DxBCT-52" target="ZgNC-Hb89PlPjt8DxBCT-57" edge="1">
          <mxGeometry relative="1" as="geometry" />
        </mxCell>
        <mxCell id="ZgNC-Hb89PlPjt8DxBCT-65" style="edgeStyle=none;curved=1;rounded=0;orthogonalLoop=1;jettySize=auto;html=1;exitX=0.25;exitY=0;exitDx=0;exitDy=0;entryX=1;entryY=0.5;entryDx=0;entryDy=0;fontSize=12;startSize=8;endSize=8;" parent="1" source="ZgNC-Hb89PlPjt8DxBCT-52" target="ZgNC-Hb89PlPjt8DxBCT-59" edge="1">
          <mxGeometry relative="1" as="geometry" />
        </mxCell>
        <mxCell id="ZgNC-Hb89PlPjt8DxBCT-66" style="edgeStyle=none;curved=1;rounded=0;orthogonalLoop=1;jettySize=auto;html=1;exitX=0;exitY=0;exitDx=0;exitDy=0;entryX=1;entryY=0.5;entryDx=0;entryDy=0;fontSize=12;startSize=8;endSize=8;" parent="1" source="ZgNC-Hb89PlPjt8DxBCT-52" target="ZgNC-Hb89PlPjt8DxBCT-60" edge="1">
          <mxGeometry relative="1" as="geometry" />
        </mxCell>
        <mxCell id="ZgNC-Hb89PlPjt8DxBCT-67" style="edgeStyle=none;curved=1;rounded=0;orthogonalLoop=1;jettySize=auto;html=1;exitX=0;exitY=0.25;exitDx=0;exitDy=0;entryX=1;entryY=0.5;entryDx=0;entryDy=0;fontSize=12;startSize=8;endSize=8;" parent="1" source="ZgNC-Hb89PlPjt8DxBCT-52" target="ZgNC-Hb89PlPjt8DxBCT-61" edge="1">
          <mxGeometry relative="1" as="geometry" />
        </mxCell>
        <mxCell id="ZgNC-Hb89PlPjt8DxBCT-68" style="edgeStyle=none;curved=1;rounded=0;orthogonalLoop=1;jettySize=auto;html=1;exitX=0;exitY=0.75;exitDx=0;exitDy=0;entryX=1;entryY=0.5;entryDx=0;entryDy=0;fontSize=12;startSize=8;endSize=8;" parent="1" source="ZgNC-Hb89PlPjt8DxBCT-52" target="ZgNC-Hb89PlPjt8DxBCT-62" edge="1">
          <mxGeometry relative="1" as="geometry" />
        </mxCell>
        <mxCell id="ZgNC-Hb89PlPjt8DxBCT-52" value="trainers" style="rounded=0;whiteSpace=wrap;html=1;" parent="1" vertex="1">
          <mxGeometry x="1149" y="145" width="120" height="60" as="geometry" />
        </mxCell>
        <mxCell id="ZgNC-Hb89PlPjt8DxBCT-56" value="&lt;u&gt;id&lt;/u&gt;" style="ellipse;whiteSpace=wrap;html=1;" parent="1" vertex="1">
          <mxGeometry x="1256" y="-165" width="70" height="40" as="geometry" />
        </mxCell>
        <mxCell id="ZgNC-Hb89PlPjt8DxBCT-57" value="&lt;u&gt;username&lt;/u&gt;" style="ellipse;whiteSpace=wrap;html=1;" parent="1" vertex="1">
          <mxGeometry x="1178" y="-165" width="70" height="40" as="geometry" />
        </mxCell>
        <mxCell id="ZgNC-Hb89PlPjt8DxBCT-59" value="&lt;u&gt;email_address&lt;/u&gt;" style="ellipse;whiteSpace=wrap;html=1;" parent="1" vertex="1">
          <mxGeometry x="1103" y="-148" width="70" height="40" as="geometry" />
        </mxCell>
        <mxCell id="ZgNC-Hb89PlPjt8DxBCT-60" value="userpassword" style="ellipse;whiteSpace=wrap;html=1;" parent="1" vertex="1">
          <mxGeometry x="1071" y="-92" width="70" height="40" as="geometry" />
        </mxCell>
        <mxCell id="ZgNC-Hb89PlPjt8DxBCT-61" value="role" style="ellipse;whiteSpace=wrap;html=1;" parent="1" vertex="1">
          <mxGeometry x="1028" y="-46" width="70" height="40" as="geometry" />
        </mxCell>
        <mxCell id="ZgNC-Hb89PlPjt8DxBCT-62" value="" style="ellipse;whiteSpace=wrap;html=1;" parent="1" vertex="1">
          <mxGeometry x="1015" y="1.5" width="79" height="47" as="geometry" />
        </mxCell>
        <mxCell id="ZgNC-Hb89PlPjt8DxBCT-76" style="edgeStyle=none;curved=1;rounded=0;orthogonalLoop=1;jettySize=auto;html=1;exitX=0.25;exitY=0;exitDx=0;exitDy=0;entryX=1;entryY=0.5;entryDx=0;entryDy=0;fontSize=12;startSize=8;endSize=8;" parent="1" source="ZgNC-Hb89PlPjt8DxBCT-70" target="ZgNC-Hb89PlPjt8DxBCT-72" edge="1">
          <mxGeometry relative="1" as="geometry" />
        </mxCell>
        <mxCell id="ZgNC-Hb89PlPjt8DxBCT-77" style="edgeStyle=none;curved=1;rounded=0;orthogonalLoop=1;jettySize=auto;html=1;exitX=0;exitY=0;exitDx=0;exitDy=0;entryX=1;entryY=0.5;entryDx=0;entryDy=0;fontSize=12;startSize=8;endSize=8;" parent="1" source="ZgNC-Hb89PlPjt8DxBCT-70" target="ZgNC-Hb89PlPjt8DxBCT-73" edge="1">
          <mxGeometry relative="1" as="geometry" />
        </mxCell>
        <mxCell id="ZgNC-Hb89PlPjt8DxBCT-78" style="edgeStyle=none;curved=1;rounded=0;orthogonalLoop=1;jettySize=auto;html=1;exitX=0;exitY=0.5;exitDx=0;exitDy=0;entryX=1;entryY=0.5;entryDx=0;entryDy=0;fontSize=12;startSize=8;endSize=8;" parent="1" source="ZgNC-Hb89PlPjt8DxBCT-70" target="ZgNC-Hb89PlPjt8DxBCT-74" edge="1">
          <mxGeometry relative="1" as="geometry" />
        </mxCell>
        <mxCell id="ZgNC-Hb89PlPjt8DxBCT-79" style="edgeStyle=none;curved=1;rounded=0;orthogonalLoop=1;jettySize=auto;html=1;exitX=0;exitY=1;exitDx=0;exitDy=0;entryX=1;entryY=0.5;entryDx=0;entryDy=0;fontSize=12;startSize=8;endSize=8;" parent="1" source="ZgNC-Hb89PlPjt8DxBCT-70" target="ZgNC-Hb89PlPjt8DxBCT-75" edge="1">
          <mxGeometry relative="1" as="geometry" />
        </mxCell>
        <mxCell id="ZgNC-Hb89PlPjt8DxBCT-70" value="administrators" style="rounded=0;whiteSpace=wrap;html=1;" parent="1" vertex="1">
          <mxGeometry x="186" y="1053" width="120" height="60" as="geometry" />
        </mxCell>
        <mxCell id="ZgNC-Hb89PlPjt8DxBCT-72" value="&lt;u&gt;adminid&lt;/u&gt;" style="ellipse;whiteSpace=wrap;html=1;" parent="1" vertex="1">
          <mxGeometry x="32" y="1003" width="70" height="40" as="geometry" />
        </mxCell>
        <mxCell id="ZgNC-Hb89PlPjt8DxBCT-73" value="email_address" style="ellipse;whiteSpace=wrap;html=1;" parent="1" vertex="1">
          <mxGeometry x="32" y="1057" width="70" height="40" as="geometry" />
        </mxCell>
        <mxCell id="ZgNC-Hb89PlPjt8DxBCT-74" value="password" style="ellipse;whiteSpace=wrap;html=1;" parent="1" vertex="1">
          <mxGeometry x="32" y="1116" width="70" height="40" as="geometry" />
        </mxCell>
        <mxCell id="ZgNC-Hb89PlPjt8DxBCT-75" value="role" style="ellipse;whiteSpace=wrap;html=1;" parent="1" vertex="1">
          <mxGeometry x="32" y="1171" width="70" height="40" as="geometry" />
        </mxCell>
        <mxCell id="ZgNC-Hb89PlPjt8DxBCT-84" value="&lt;u&gt;id&lt;/u&gt;" style="ellipse;whiteSpace=wrap;html=1;" parent="1" vertex="1">
          <mxGeometry x="795" y="-231" width="70" height="40" as="geometry" />
        </mxCell>
        <mxCell id="ZgNC-Hb89PlPjt8DxBCT-86" value="user_name" style="ellipse;whiteSpace=wrap;html=1;" parent="1" vertex="1">
          <mxGeometry x="712" y="-204" width="70" height="40" as="geometry" />
        </mxCell>
        <mxCell id="ZgNC-Hb89PlPjt8DxBCT-87" value="trainer_name" style="ellipse;whiteSpace=wrap;html=1;" parent="1" vertex="1">
          <mxGeometry x="619" y="-221" width="70" height="40" as="geometry" />
        </mxCell>
        <mxCell id="ZgNC-Hb89PlPjt8DxBCT-88" value="session_date" style="ellipse;whiteSpace=wrap;html=1;" parent="1" vertex="1">
          <mxGeometry x="574" y="-160" width="70" height="40" as="geometry" />
        </mxCell>
        <mxCell id="ZgNC-Hb89PlPjt8DxBCT-89" value="start_time" style="ellipse;whiteSpace=wrap;html=1;" parent="1" vertex="1">
          <mxGeometry x="534" y="-96" width="70" height="40" as="geometry" />
        </mxCell>
        <mxCell id="ZgNC-Hb89PlPjt8DxBCT-90" value="end_time" style="ellipse;whiteSpace=wrap;html=1;" parent="1" vertex="1">
          <mxGeometry x="504" y="-39" width="70" height="40" as="geometry" />
        </mxCell>
        <mxCell id="ZgNC-Hb89PlPjt8DxBCT-91" value="availability" style="ellipse;whiteSpace=wrap;html=1;" parent="1" vertex="1">
          <mxGeometry x="1019.5" y="5" width="70" height="40" as="geometry" />
        </mxCell>
        <mxCell id="ZgNC-Hb89PlPjt8DxBCT-95" style="edgeStyle=none;curved=1;rounded=0;orthogonalLoop=1;jettySize=auto;html=1;exitX=0.5;exitY=0;exitDx=0;exitDy=0;entryX=1;entryY=0.5;entryDx=0;entryDy=0;fontSize=12;startSize=8;endSize=8;" parent="1" source="ZgNC-Hb89PlPjt8DxBCT-92" target="ZgNC-Hb89PlPjt8DxBCT-84" edge="1">
          <mxGeometry relative="1" as="geometry" />
        </mxCell>
        <mxCell id="ZgNC-Hb89PlPjt8DxBCT-96" style="edgeStyle=none;curved=1;rounded=0;orthogonalLoop=1;jettySize=auto;html=1;exitX=0.25;exitY=0;exitDx=0;exitDy=0;entryX=1;entryY=0.5;entryDx=0;entryDy=0;fontSize=12;startSize=8;endSize=8;" parent="1" source="ZgNC-Hb89PlPjt8DxBCT-92" target="ZgNC-Hb89PlPjt8DxBCT-86" edge="1">
          <mxGeometry relative="1" as="geometry" />
        </mxCell>
        <mxCell id="ZgNC-Hb89PlPjt8DxBCT-97" style="edgeStyle=none;curved=1;rounded=0;orthogonalLoop=1;jettySize=auto;html=1;exitX=0;exitY=0;exitDx=0;exitDy=0;entryX=1;entryY=0.5;entryDx=0;entryDy=0;fontSize=12;startSize=8;endSize=8;" parent="1" source="ZgNC-Hb89PlPjt8DxBCT-92" target="ZgNC-Hb89PlPjt8DxBCT-87" edge="1">
          <mxGeometry relative="1" as="geometry" />
        </mxCell>
        <mxCell id="ZgNC-Hb89PlPjt8DxBCT-98" style="edgeStyle=none;curved=1;rounded=0;orthogonalLoop=1;jettySize=auto;html=1;exitX=0;exitY=0.25;exitDx=0;exitDy=0;entryX=1;entryY=0.5;entryDx=0;entryDy=0;fontSize=12;startSize=8;endSize=8;" parent="1" source="ZgNC-Hb89PlPjt8DxBCT-92" target="ZgNC-Hb89PlPjt8DxBCT-88" edge="1">
          <mxGeometry relative="1" as="geometry" />
        </mxCell>
        <mxCell id="ZgNC-Hb89PlPjt8DxBCT-99" style="edgeStyle=none;curved=1;rounded=0;orthogonalLoop=1;jettySize=auto;html=1;exitX=0;exitY=0.5;exitDx=0;exitDy=0;entryX=1;entryY=0.5;entryDx=0;entryDy=0;fontSize=12;startSize=8;endSize=8;" parent="1" source="ZgNC-Hb89PlPjt8DxBCT-92" target="ZgNC-Hb89PlPjt8DxBCT-89" edge="1">
          <mxGeometry relative="1" as="geometry" />
        </mxCell>
        <mxCell id="ZgNC-Hb89PlPjt8DxBCT-100" style="edgeStyle=none;curved=1;rounded=0;orthogonalLoop=1;jettySize=auto;html=1;exitX=0;exitY=1;exitDx=0;exitDy=0;entryX=1;entryY=0.5;entryDx=0;entryDy=0;fontSize=12;startSize=8;endSize=8;" parent="1" source="ZgNC-Hb89PlPjt8DxBCT-92" target="ZgNC-Hb89PlPjt8DxBCT-90" edge="1">
          <mxGeometry relative="1" as="geometry" />
        </mxCell>
        <mxCell id="ZgNC-Hb89PlPjt8DxBCT-92" value="" style="rounded=0;whiteSpace=wrap;html=1;" parent="1" vertex="1">
          <mxGeometry x="712" y="111" width="127" height="66" as="geometry" />
        </mxCell>
        <mxCell id="ZgNC-Hb89PlPjt8DxBCT-93" value="sessions" style="rounded=0;whiteSpace=wrap;html=1;" parent="1" vertex="1">
          <mxGeometry x="715.5" y="114" width="120" height="60" as="geometry" />
        </mxCell>
        <mxCell id="ZgNC-Hb89PlPjt8DxBCT-108" style="edgeStyle=none;curved=1;rounded=0;orthogonalLoop=1;jettySize=auto;html=1;exitX=0.5;exitY=0;exitDx=0;exitDy=0;entryX=1;entryY=0.5;entryDx=0;entryDy=0;fontSize=12;startSize=8;endSize=8;" parent="1" source="ZgNC-Hb89PlPjt8DxBCT-101" target="ZgNC-Hb89PlPjt8DxBCT-103" edge="1">
          <mxGeometry relative="1" as="geometry" />
        </mxCell>
        <mxCell id="ZgNC-Hb89PlPjt8DxBCT-109" style="edgeStyle=none;curved=1;rounded=0;orthogonalLoop=1;jettySize=auto;html=1;exitX=0.25;exitY=0;exitDx=0;exitDy=0;entryX=1;entryY=0.5;entryDx=0;entryDy=0;fontSize=12;startSize=8;endSize=8;" parent="1" source="ZgNC-Hb89PlPjt8DxBCT-101" target="ZgNC-Hb89PlPjt8DxBCT-104" edge="1">
          <mxGeometry relative="1" as="geometry" />
        </mxCell>
        <mxCell id="ZgNC-Hb89PlPjt8DxBCT-110" style="edgeStyle=none;curved=1;rounded=0;orthogonalLoop=1;jettySize=auto;html=1;exitX=0;exitY=0.5;exitDx=0;exitDy=0;entryX=1;entryY=0.5;entryDx=0;entryDy=0;fontSize=12;startSize=8;endSize=8;" parent="1" source="ZgNC-Hb89PlPjt8DxBCT-101" target="ZgNC-Hb89PlPjt8DxBCT-105" edge="1">
          <mxGeometry relative="1" as="geometry" />
        </mxCell>
        <mxCell id="ZgNC-Hb89PlPjt8DxBCT-111" style="edgeStyle=none;curved=1;rounded=0;orthogonalLoop=1;jettySize=auto;html=1;exitX=0;exitY=1;exitDx=0;exitDy=0;entryX=1;entryY=0.5;entryDx=0;entryDy=0;fontSize=12;startSize=8;endSize=8;" parent="1" source="ZgNC-Hb89PlPjt8DxBCT-101" target="ZgNC-Hb89PlPjt8DxBCT-106" edge="1">
          <mxGeometry relative="1" as="geometry" />
        </mxCell>
        <mxCell id="ZgNC-Hb89PlPjt8DxBCT-101" value="billings" style="rounded=0;whiteSpace=wrap;html=1;" parent="1" vertex="1">
          <mxGeometry x="123" y="672" width="120" height="60" as="geometry" />
        </mxCell>
        <mxCell id="ZgNC-Hb89PlPjt8DxBCT-103" value="&lt;u&gt;id&lt;/u&gt;" style="ellipse;whiteSpace=wrap;html=1;" parent="1" vertex="1">
          <mxGeometry x="1" y="607" width="70" height="40" as="geometry" />
        </mxCell>
        <mxCell id="ZgNC-Hb89PlPjt8DxBCT-104" value="user_id" style="ellipse;whiteSpace=wrap;html=1;" parent="1" vertex="1">
          <mxGeometry x="1" y="655" width="70" height="40" as="geometry" />
        </mxCell>
        <mxCell id="ZgNC-Hb89PlPjt8DxBCT-105" value="amount" style="ellipse;whiteSpace=wrap;html=1;" parent="1" vertex="1">
          <mxGeometry x="1" y="704" width="70" height="40" as="geometry" />
        </mxCell>
        <mxCell id="ZgNC-Hb89PlPjt8DxBCT-106" value="payment_status" style="ellipse;whiteSpace=wrap;html=1;" parent="1" vertex="1">
          <mxGeometry x="1" y="752" width="70" height="40" as="geometry" />
        </mxCell>
        <mxCell id="ZgNC-Hb89PlPjt8DxBCT-183" style="edgeStyle=none;curved=1;rounded=0;orthogonalLoop=1;jettySize=auto;html=1;exitX=1;exitY=0;exitDx=0;exitDy=0;entryX=0.5;entryY=1;entryDx=0;entryDy=0;fontSize=12;startSize=8;endSize=8;" parent="1" source="ZgNC-Hb89PlPjt8DxBCT-117" target="ZgNC-Hb89PlPjt8DxBCT-120" edge="1">
          <mxGeometry relative="1" as="geometry" />
        </mxCell>
        <mxCell id="ZgNC-Hb89PlPjt8DxBCT-184" style="edgeStyle=none;curved=1;rounded=0;orthogonalLoop=1;jettySize=auto;html=1;exitX=0.5;exitY=0;exitDx=0;exitDy=0;entryX=0.5;entryY=1;entryDx=0;entryDy=0;fontSize=12;startSize=8;endSize=8;" parent="1" source="ZgNC-Hb89PlPjt8DxBCT-117" target="ZgNC-Hb89PlPjt8DxBCT-121" edge="1">
          <mxGeometry relative="1" as="geometry" />
        </mxCell>
        <mxCell id="ZgNC-Hb89PlPjt8DxBCT-185" style="edgeStyle=none;curved=1;rounded=0;orthogonalLoop=1;jettySize=auto;html=1;exitX=0;exitY=0;exitDx=0;exitDy=0;entryX=0.5;entryY=1;entryDx=0;entryDy=0;fontSize=12;startSize=8;endSize=8;" parent="1" source="ZgNC-Hb89PlPjt8DxBCT-117" target="ZgNC-Hb89PlPjt8DxBCT-122" edge="1">
          <mxGeometry relative="1" as="geometry" />
        </mxCell>
        <mxCell id="ZgNC-Hb89PlPjt8DxBCT-117" value="equipment_monitoring" style="rounded=0;whiteSpace=wrap;html=1;" parent="1" vertex="1">
          <mxGeometry x="590" y="928" width="120" height="60" as="geometry" />
        </mxCell>
        <mxCell id="ZgNC-Hb89PlPjt8DxBCT-120" value="&lt;u&gt;id&lt;/u&gt;" style="ellipse;whiteSpace=wrap;html=1;" parent="1" vertex="1">
          <mxGeometry x="697" y="832" width="70" height="40" as="geometry" />
        </mxCell>
        <mxCell id="ZgNC-Hb89PlPjt8DxBCT-121" value="name" style="ellipse;whiteSpace=wrap;html=1;" parent="1" vertex="1">
          <mxGeometry x="618" y="832" width="70" height="40" as="geometry" />
        </mxCell>
        <mxCell id="ZgNC-Hb89PlPjt8DxBCT-122" value="isFunctional" style="ellipse;whiteSpace=wrap;html=1;" parent="1" vertex="1">
          <mxGeometry x="541" y="832" width="70" height="40" as="geometry" />
        </mxCell>
        <mxCell id="ZgNC-Hb89PlPjt8DxBCT-135" style="edgeStyle=none;curved=1;rounded=0;orthogonalLoop=1;jettySize=auto;html=1;exitX=0.75;exitY=0;exitDx=0;exitDy=0;entryX=1;entryY=0.5;entryDx=0;entryDy=0;fontSize=12;startSize=8;endSize=8;" parent="1" source="ZgNC-Hb89PlPjt8DxBCT-126" target="ZgNC-Hb89PlPjt8DxBCT-127" edge="1">
          <mxGeometry relative="1" as="geometry" />
        </mxCell>
        <mxCell id="ZgNC-Hb89PlPjt8DxBCT-136" style="edgeStyle=none;curved=1;rounded=0;orthogonalLoop=1;jettySize=auto;html=1;exitX=0.5;exitY=0;exitDx=0;exitDy=0;entryX=1;entryY=0.5;entryDx=0;entryDy=0;fontSize=12;startSize=8;endSize=8;" parent="1" source="ZgNC-Hb89PlPjt8DxBCT-126" target="ZgNC-Hb89PlPjt8DxBCT-128" edge="1">
          <mxGeometry relative="1" as="geometry" />
        </mxCell>
        <mxCell id="ZgNC-Hb89PlPjt8DxBCT-204" style="edgeStyle=none;curved=1;rounded=0;orthogonalLoop=1;jettySize=auto;html=1;exitX=1;exitY=0.25;exitDx=0;exitDy=0;fontSize=12;startSize=8;endSize=8;" parent="1" source="ZgNC-Hb89PlPjt8DxBCT-126" target="ZgNC-Hb89PlPjt8DxBCT-130" edge="1">
          <mxGeometry relative="1" as="geometry" />
        </mxCell>
        <mxCell id="ZgNC-Hb89PlPjt8DxBCT-205" style="edgeStyle=none;curved=1;rounded=0;orthogonalLoop=1;jettySize=auto;html=1;exitX=1;exitY=0.5;exitDx=0;exitDy=0;entryX=0;entryY=0.5;entryDx=0;entryDy=0;fontSize=12;startSize=8;endSize=8;" parent="1" source="ZgNC-Hb89PlPjt8DxBCT-126" target="ZgNC-Hb89PlPjt8DxBCT-131" edge="1">
          <mxGeometry relative="1" as="geometry" />
        </mxCell>
        <mxCell id="ZgNC-Hb89PlPjt8DxBCT-206" style="edgeStyle=none;curved=1;rounded=0;orthogonalLoop=1;jettySize=auto;html=1;exitX=1;exitY=0.75;exitDx=0;exitDy=0;entryX=0;entryY=0.5;entryDx=0;entryDy=0;fontSize=12;startSize=8;endSize=8;" parent="1" source="ZgNC-Hb89PlPjt8DxBCT-126" target="ZgNC-Hb89PlPjt8DxBCT-133" edge="1">
          <mxGeometry relative="1" as="geometry" />
        </mxCell>
        <mxCell id="ZgNC-Hb89PlPjt8DxBCT-126" value="classes" style="rounded=0;whiteSpace=wrap;html=1;" parent="1" vertex="1">
          <mxGeometry x="691.5" y="538" width="120" height="60" as="geometry" />
        </mxCell>
        <mxCell id="ZgNC-Hb89PlPjt8DxBCT-127" value="&lt;u&gt;class_id&lt;/u&gt;" style="ellipse;whiteSpace=wrap;html=1;" parent="1" vertex="1">
          <mxGeometry x="913" y="387" width="70" height="40" as="geometry" />
        </mxCell>
        <mxCell id="ZgNC-Hb89PlPjt8DxBCT-128" value="class_name" style="ellipse;whiteSpace=wrap;html=1;" parent="1" vertex="1">
          <mxGeometry x="816" y="396" width="70" height="44" as="geometry" />
        </mxCell>
        <mxCell id="ZgNC-Hb89PlPjt8DxBCT-129" value="class_date" style="ellipse;whiteSpace=wrap;html=1;" parent="1" vertex="1">
          <mxGeometry x="973" y="426" width="70" height="40" as="geometry" />
        </mxCell>
        <mxCell id="ZgNC-Hb89PlPjt8DxBCT-130" value="class_time" style="ellipse;whiteSpace=wrap;html=1;" parent="1" vertex="1">
          <mxGeometry x="981" y="487" width="70" height="40" as="geometry" />
        </mxCell>
        <mxCell id="ZgNC-Hb89PlPjt8DxBCT-131" value="class_endtime" style="ellipse;whiteSpace=wrap;html=1;" parent="1" vertex="1">
          <mxGeometry x="981" y="545" width="70" height="40" as="geometry" />
        </mxCell>
        <mxCell id="ZgNC-Hb89PlPjt8DxBCT-133" value="participants" style="ellipse;whiteSpace=wrap;html=1;" parent="1" vertex="1">
          <mxGeometry x="963" y="607" width="83" height="45" as="geometry" />
        </mxCell>
        <mxCell id="ZgNC-Hb89PlPjt8DxBCT-134" value="participants" style="ellipse;whiteSpace=wrap;html=1;" parent="1" vertex="1">
          <mxGeometry x="969.5" y="609.5" width="70" height="40" as="geometry" />
        </mxCell>
        <mxCell id="ZgNC-Hb89PlPjt8DxBCT-148" style="edgeStyle=none;curved=1;rounded=0;orthogonalLoop=1;jettySize=auto;html=1;exitX=0;exitY=0;exitDx=0;exitDy=0;entryX=1;entryY=0.5;entryDx=0;entryDy=0;fontSize=12;startSize=8;endSize=8;" parent="1" source="ZgNC-Hb89PlPjt8DxBCT-142" target="ZgNC-Hb89PlPjt8DxBCT-143" edge="1">
          <mxGeometry relative="1" as="geometry" />
        </mxCell>
        <mxCell id="ZgNC-Hb89PlPjt8DxBCT-149" style="edgeStyle=none;curved=1;rounded=0;orthogonalLoop=1;jettySize=auto;html=1;exitX=0;exitY=0.25;exitDx=0;exitDy=0;entryX=1;entryY=0.5;entryDx=0;entryDy=0;fontSize=12;startSize=8;endSize=8;" parent="1" source="ZgNC-Hb89PlPjt8DxBCT-142" target="ZgNC-Hb89PlPjt8DxBCT-144" edge="1">
          <mxGeometry relative="1" as="geometry" />
        </mxCell>
        <mxCell id="ZgNC-Hb89PlPjt8DxBCT-150" style="edgeStyle=none;curved=1;rounded=0;orthogonalLoop=1;jettySize=auto;html=1;exitX=0;exitY=0.5;exitDx=0;exitDy=0;entryX=1;entryY=0.5;entryDx=0;entryDy=0;fontSize=12;startSize=8;endSize=8;" parent="1" source="ZgNC-Hb89PlPjt8DxBCT-142" target="ZgNC-Hb89PlPjt8DxBCT-145" edge="1">
          <mxGeometry relative="1" as="geometry" />
        </mxCell>
        <mxCell id="ZgNC-Hb89PlPjt8DxBCT-151" style="edgeStyle=none;curved=1;rounded=0;orthogonalLoop=1;jettySize=auto;html=1;exitX=0;exitY=1;exitDx=0;exitDy=0;entryX=1;entryY=0.5;entryDx=0;entryDy=0;fontSize=12;startSize=8;endSize=8;" parent="1" source="ZgNC-Hb89PlPjt8DxBCT-142" target="ZgNC-Hb89PlPjt8DxBCT-147" edge="1">
          <mxGeometry relative="1" as="geometry" />
        </mxCell>
        <mxCell id="ZgNC-Hb89PlPjt8DxBCT-142" value="rooms" style="rounded=0;whiteSpace=wrap;html=1;" parent="1" vertex="1">
          <mxGeometry x="445.5" y="1376" width="120" height="60" as="geometry" />
        </mxCell>
        <mxCell id="ZgNC-Hb89PlPjt8DxBCT-143" value="&lt;u&gt;room_id&lt;/u&gt;" style="ellipse;whiteSpace=wrap;html=1;" parent="1" vertex="1">
          <mxGeometry x="291" y="1351" width="70" height="40" as="geometry" />
        </mxCell>
        <mxCell id="ZgNC-Hb89PlPjt8DxBCT-144" value="room_name" style="ellipse;whiteSpace=wrap;html=1;" parent="1" vertex="1">
          <mxGeometry x="291" y="1405" width="70" height="40" as="geometry" />
        </mxCell>
        <mxCell id="ZgNC-Hb89PlPjt8DxBCT-145" value="&lt;u&gt;class_id&lt;/u&gt;" style="ellipse;whiteSpace=wrap;html=1;" parent="1" vertex="1">
          <mxGeometry x="291" y="1455" width="70" height="40" as="geometry" />
        </mxCell>
        <mxCell id="ZgNC-Hb89PlPjt8DxBCT-147" value="isTaken" style="ellipse;whiteSpace=wrap;html=1;" parent="1" vertex="1">
          <mxGeometry x="287" y="1499" width="70" height="40" as="geometry" />
        </mxCell>
        <mxCell id="ZgNC-Hb89PlPjt8DxBCT-158" value="have" style="rhombus;whiteSpace=wrap;html=1;" parent="1" vertex="1">
          <mxGeometry x="460" y="167" width="139" height="80" as="geometry" />
        </mxCell>
        <mxCell id="ZgNC-Hb89PlPjt8DxBCT-161" value="" style="endArrow=none;html=1;rounded=0;fontSize=12;startSize=8;endSize=8;curved=1;exitX=1;exitY=0.5;exitDx=0;exitDy=0;entryX=0;entryY=0.5;entryDx=0;entryDy=0;" parent="1" source="ZgNC-Hb89PlPjt8DxBCT-1" target="ZgNC-Hb89PlPjt8DxBCT-158" edge="1">
          <mxGeometry width="50" height="50" relative="1" as="geometry">
            <mxPoint x="450" y="296" as="sourcePoint" />
            <mxPoint x="500" y="246" as="targetPoint" />
          </mxGeometry>
        </mxCell>
        <mxCell id="ZgNC-Hb89PlPjt8DxBCT-162" value="" style="endArrow=none;html=1;rounded=0;fontSize=12;curved=1;exitX=1;exitY=0.5;exitDx=0;exitDy=0;entryX=0;entryY=1;entryDx=0;entryDy=0;shape=link;" parent="1" source="ZgNC-Hb89PlPjt8DxBCT-158" target="ZgNC-Hb89PlPjt8DxBCT-92" edge="1">
          <mxGeometry width="50" height="50" relative="1" as="geometry">
            <mxPoint x="701" y="68" as="sourcePoint" />
            <mxPoint x="751" y="18" as="targetPoint" />
          </mxGeometry>
        </mxCell>
        <mxCell id="ZgNC-Hb89PlPjt8DxBCT-163" value="1" style="text;html=1;align=center;verticalAlign=middle;resizable=0;points=[];autosize=1;strokeColor=none;fillColor=none;fontSize=16;" parent="1" vertex="1">
          <mxGeometry x="303" y="174" width="27" height="31" as="geometry" />
        </mxCell>
        <mxCell id="ZgNC-Hb89PlPjt8DxBCT-164" value="N" style="text;html=1;align=center;verticalAlign=middle;resizable=0;points=[];autosize=1;strokeColor=none;fillColor=none;fontSize=16;" parent="1" vertex="1">
          <mxGeometry x="661" y="153" width="30" height="31" as="geometry" />
        </mxCell>
        <mxCell id="ZgNC-Hb89PlPjt8DxBCT-170" value="runs" style="rhombus;whiteSpace=wrap;html=1;" parent="1" vertex="1">
          <mxGeometry x="925" y="149.5" width="118" height="80" as="geometry" />
        </mxCell>
        <mxCell id="ZgNC-Hb89PlPjt8DxBCT-171" value="" style="endArrow=none;html=1;rounded=0;fontSize=12;curved=1;exitX=1;exitY=1;exitDx=0;exitDy=0;entryX=0;entryY=0.5;entryDx=0;entryDy=0;shape=link;" parent="1" source="ZgNC-Hb89PlPjt8DxBCT-92" target="ZgNC-Hb89PlPjt8DxBCT-170" edge="1">
          <mxGeometry width="50" height="50" relative="1" as="geometry">
            <mxPoint x="940" y="296" as="sourcePoint" />
            <mxPoint x="990" y="246" as="targetPoint" />
          </mxGeometry>
        </mxCell>
        <mxCell id="ZgNC-Hb89PlPjt8DxBCT-174" value="" style="endArrow=none;html=1;rounded=0;fontSize=12;startSize=8;endSize=8;curved=1;exitX=0;exitY=1;exitDx=0;exitDy=0;entryX=1;entryY=0.5;entryDx=0;entryDy=0;" parent="1" source="ZgNC-Hb89PlPjt8DxBCT-52" target="ZgNC-Hb89PlPjt8DxBCT-170" edge="1">
          <mxGeometry width="50" height="50" relative="1" as="geometry">
            <mxPoint x="940" y="296" as="sourcePoint" />
            <mxPoint x="990" y="246" as="targetPoint" />
          </mxGeometry>
        </mxCell>
        <mxCell id="ZgNC-Hb89PlPjt8DxBCT-175" value="1" style="text;html=1;align=center;verticalAlign=middle;resizable=0;points=[];autosize=1;strokeColor=none;fillColor=none;fontSize=16;" parent="1" vertex="1">
          <mxGeometry x="1111.5" y="172.5" width="27" height="31" as="geometry" />
        </mxCell>
        <mxCell id="ZgNC-Hb89PlPjt8DxBCT-176" value="N" style="text;html=1;align=center;verticalAlign=middle;resizable=0;points=[];autosize=1;strokeColor=none;fillColor=none;fontSize=16;" parent="1" vertex="1">
          <mxGeometry x="842.5" y="151.5" width="30" height="31" as="geometry" />
        </mxCell>
        <mxCell id="ZgNC-Hb89PlPjt8DxBCT-177" value="pays" style="rhombus;whiteSpace=wrap;html=1;" parent="1" vertex="1">
          <mxGeometry x="243" y="402" width="107" height="80" as="geometry" />
        </mxCell>
        <mxCell id="ZgNC-Hb89PlPjt8DxBCT-178" value="" style="endArrow=none;html=1;rounded=0;fontSize=12;startSize=8;endSize=8;curved=1;exitX=0.5;exitY=0;exitDx=0;exitDy=0;entryX=1;entryY=1;entryDx=0;entryDy=0;" parent="1" source="ZgNC-Hb89PlPjt8DxBCT-177" target="ZgNC-Hb89PlPjt8DxBCT-1" edge="1">
          <mxGeometry width="50" height="50" relative="1" as="geometry">
            <mxPoint x="421" y="453" as="sourcePoint" />
            <mxPoint x="471" y="403" as="targetPoint" />
          </mxGeometry>
        </mxCell>
        <mxCell id="ZgNC-Hb89PlPjt8DxBCT-179" value="" style="endArrow=none;html=1;rounded=0;fontSize=12;startSize=8;endSize=8;curved=1;entryX=1;entryY=0;entryDx=0;entryDy=0;exitX=0.5;exitY=1;exitDx=0;exitDy=0;" parent="1" source="ZgNC-Hb89PlPjt8DxBCT-177" target="ZgNC-Hb89PlPjt8DxBCT-101" edge="1">
          <mxGeometry width="50" height="50" relative="1" as="geometry">
            <mxPoint x="421" y="453" as="sourcePoint" />
            <mxPoint x="471" y="403" as="targetPoint" />
          </mxGeometry>
        </mxCell>
        <mxCell id="ZgNC-Hb89PlPjt8DxBCT-180" value="N" style="text;html=1;align=center;verticalAlign=middle;resizable=0;points=[];autosize=1;strokeColor=none;fillColor=none;fontSize=16;" parent="1" vertex="1">
          <mxGeometry x="219.5" y="638.5" width="30" height="31" as="geometry" />
        </mxCell>
        <mxCell id="ZgNC-Hb89PlPjt8DxBCT-181" value="1" style="text;html=1;align=center;verticalAlign=middle;resizable=0;points=[];autosize=1;strokeColor=none;fillColor=none;fontSize=16;" parent="1" vertex="1">
          <mxGeometry x="272" y="257" width="27" height="31" as="geometry" />
        </mxCell>
        <mxCell id="ZgNC-Hb89PlPjt8DxBCT-186" value="manages" style="rhombus;whiteSpace=wrap;html=1;" parent="1" vertex="1">
          <mxGeometry x="410" y="973" width="116" height="80" as="geometry" />
        </mxCell>
        <mxCell id="ZgNC-Hb89PlPjt8DxBCT-187" value="" style="endArrow=none;html=1;rounded=0;fontSize=12;startSize=8;endSize=8;curved=1;exitX=1;exitY=0;exitDx=0;exitDy=0;entryX=0;entryY=0.5;entryDx=0;entryDy=0;" parent="1" source="ZgNC-Hb89PlPjt8DxBCT-186" target="ZgNC-Hb89PlPjt8DxBCT-117" edge="1">
          <mxGeometry width="50" height="50" relative="1" as="geometry">
            <mxPoint x="490" y="1070" as="sourcePoint" />
            <mxPoint x="540" y="1020" as="targetPoint" />
          </mxGeometry>
        </mxCell>
        <mxCell id="ZgNC-Hb89PlPjt8DxBCT-188" value="" style="endArrow=none;html=1;rounded=0;fontSize=12;startSize=8;endSize=8;curved=1;exitX=1;exitY=0.25;exitDx=0;exitDy=0;entryX=0;entryY=1;entryDx=0;entryDy=0;" parent="1" source="ZgNC-Hb89PlPjt8DxBCT-70" target="ZgNC-Hb89PlPjt8DxBCT-186" edge="1">
          <mxGeometry width="50" height="50" relative="1" as="geometry">
            <mxPoint x="490" y="1070" as="sourcePoint" />
            <mxPoint x="540" y="1020" as="targetPoint" />
          </mxGeometry>
        </mxCell>
        <mxCell id="ZgNC-Hb89PlPjt8DxBCT-189" value="manages" style="rhombus;whiteSpace=wrap;html=1;" parent="1" vertex="1">
          <mxGeometry x="312.5" y="1192" width="116" height="80" as="geometry" />
        </mxCell>
        <mxCell id="ZgNC-Hb89PlPjt8DxBCT-190" value="" style="endArrow=none;html=1;rounded=0;fontSize=12;startSize=8;endSize=8;curved=1;exitX=0.5;exitY=1;exitDx=0;exitDy=0;entryX=0.5;entryY=0;entryDx=0;entryDy=0;" parent="1" source="ZgNC-Hb89PlPjt8DxBCT-189" target="ZgNC-Hb89PlPjt8DxBCT-142" edge="1">
          <mxGeometry width="50" height="50" relative="1" as="geometry">
            <mxPoint x="490" y="1170" as="sourcePoint" />
            <mxPoint x="540" y="1120" as="targetPoint" />
          </mxGeometry>
        </mxCell>
        <mxCell id="ZgNC-Hb89PlPjt8DxBCT-191" value="" style="endArrow=none;html=1;rounded=0;fontSize=12;startSize=8;endSize=8;curved=1;exitX=0;exitY=0;exitDx=0;exitDy=0;entryX=0.75;entryY=1;entryDx=0;entryDy=0;" parent="1" source="ZgNC-Hb89PlPjt8DxBCT-189" target="ZgNC-Hb89PlPjt8DxBCT-70" edge="1">
          <mxGeometry width="50" height="50" relative="1" as="geometry">
            <mxPoint x="490" y="1170" as="sourcePoint" />
            <mxPoint x="540" y="1120" as="targetPoint" />
          </mxGeometry>
        </mxCell>
        <mxCell id="ZgNC-Hb89PlPjt8DxBCT-192" value="N" style="text;html=1;align=center;verticalAlign=middle;resizable=0;points=[];autosize=1;strokeColor=none;fillColor=none;fontSize=16;" parent="1" vertex="1">
          <mxGeometry x="307.5" y="1019.5" width="30" height="31" as="geometry" />
        </mxCell>
        <mxCell id="ZgNC-Hb89PlPjt8DxBCT-193" value="M" style="text;html=1;align=center;verticalAlign=middle;resizable=0;points=[];autosize=1;strokeColor=none;fillColor=none;fontSize=16;" parent="1" vertex="1">
          <mxGeometry x="547" y="935" width="31" height="31" as="geometry" />
        </mxCell>
        <mxCell id="ZgNC-Hb89PlPjt8DxBCT-195" value="N" style="text;html=1;align=center;verticalAlign=middle;resizable=0;points=[];autosize=1;strokeColor=none;fillColor=none;fontSize=16;" parent="1" vertex="1">
          <mxGeometry x="305.5" y="1112.5" width="30" height="31" as="geometry" />
        </mxCell>
        <mxCell id="ZgNC-Hb89PlPjt8DxBCT-196" value="M" style="text;html=1;align=center;verticalAlign=middle;resizable=0;points=[];autosize=1;strokeColor=none;fillColor=none;fontSize=16;" parent="1" vertex="1">
          <mxGeometry x="534.5" y="1351.5" width="31" height="31" as="geometry" />
        </mxCell>
        <mxCell id="ZgNC-Hb89PlPjt8DxBCT-203" style="edgeStyle=none;curved=1;rounded=0;orthogonalLoop=1;jettySize=auto;html=1;exitX=1;exitY=0;exitDx=0;exitDy=0;entryX=0.041;entryY=0.672;entryDx=0;entryDy=0;entryPerimeter=0;fontSize=12;startSize=8;endSize=8;" parent="1" source="ZgNC-Hb89PlPjt8DxBCT-126" target="ZgNC-Hb89PlPjt8DxBCT-129" edge="1">
          <mxGeometry relative="1" as="geometry" />
        </mxCell>
        <mxCell id="ZgNC-Hb89PlPjt8DxBCT-207" value="joins" style="rhombus;whiteSpace=wrap;html=1;" parent="1" vertex="1">
          <mxGeometry x="475.5" y="402" width="108" height="80" as="geometry" />
        </mxCell>
        <mxCell id="ZgNC-Hb89PlPjt8DxBCT-208" value="" style="endArrow=none;html=1;rounded=0;fontSize=12;startSize=8;endSize=8;curved=1;exitX=1;exitY=0.75;exitDx=0;exitDy=0;entryX=0;entryY=0;entryDx=0;entryDy=0;" parent="1" source="ZgNC-Hb89PlPjt8DxBCT-1" target="ZgNC-Hb89PlPjt8DxBCT-207" edge="1">
          <mxGeometry width="50" height="50" relative="1" as="geometry">
            <mxPoint x="544" y="495" as="sourcePoint" />
            <mxPoint x="594" y="445" as="targetPoint" />
          </mxGeometry>
        </mxCell>
        <mxCell id="ZgNC-Hb89PlPjt8DxBCT-209" value="" style="endArrow=none;html=1;rounded=0;fontSize=12;startSize=8;endSize=8;curved=1;exitX=0;exitY=0.25;exitDx=0;exitDy=0;" parent="1" source="ZgNC-Hb89PlPjt8DxBCT-126" target="ZgNC-Hb89PlPjt8DxBCT-207" edge="1">
          <mxGeometry width="50" height="50" relative="1" as="geometry">
            <mxPoint x="544" y="495" as="sourcePoint" />
            <mxPoint x="594" y="445" as="targetPoint" />
          </mxGeometry>
        </mxCell>
        <mxCell id="ZgNC-Hb89PlPjt8DxBCT-210" value="N" style="text;html=1;align=center;verticalAlign=middle;resizable=0;points=[];autosize=1;strokeColor=none;fillColor=none;fontSize=16;" parent="1" vertex="1">
          <mxGeometry x="648.5" y="540.5" width="30" height="31" as="geometry" />
        </mxCell>
        <mxCell id="ZgNC-Hb89PlPjt8DxBCT-211" value="M" style="text;html=1;align=center;verticalAlign=middle;resizable=0;points=[];autosize=1;strokeColor=none;fillColor=none;fontSize=16;" parent="1" vertex="1">
          <mxGeometry x="302.5" y="214.5" width="31" height="31" as="geometry" />
        </mxCell>
        <mxCell id="RdMy14tS3MaUnSTZ-gCo-1" value="books" style="rhombus;whiteSpace=wrap;html=1;" parent="1" vertex="1">
          <mxGeometry x="926" y="943" width="120" height="80" as="geometry" />
        </mxCell>
        <mxCell id="RdMy14tS3MaUnSTZ-gCo-2" value="" style="endArrow=none;html=1;rounded=0;fontSize=12;curved=1;exitX=1;exitY=0.5;exitDx=0;exitDy=0;entryX=0;entryY=1;entryDx=0;entryDy=0;shape=link;" parent="1" source="ZgNC-Hb89PlPjt8DxBCT-142" target="RdMy14tS3MaUnSTZ-gCo-1" edge="1">
          <mxGeometry width="50" height="50" relative="1" as="geometry">
            <mxPoint x="530" y="1233" as="sourcePoint" />
            <mxPoint x="580" y="1183" as="targetPoint" />
          </mxGeometry>
        </mxCell>
        <mxCell id="RdMy14tS3MaUnSTZ-gCo-4" value="1" style="text;html=1;align=center;verticalAlign=middle;resizable=0;points=[];autosize=1;strokeColor=none;fillColor=none;fontSize=16;" parent="1" vertex="1">
          <mxGeometry x="573.5" y="1382.5" width="27" height="31" as="geometry" />
        </mxCell>
        <mxCell id="RdMy14tS3MaUnSTZ-gCo-5" value="1" style="text;html=1;align=center;verticalAlign=middle;resizable=0;points=[];autosize=1;strokeColor=none;fillColor=none;fontSize=16;" parent="1" vertex="1">
          <mxGeometry x="770.5" y="599.5" width="27" height="31" as="geometry" />
        </mxCell>
        <mxCell id="IYJguDjVa9bQlSl0sGfF-2" value="" style="endArrow=none;html=1;rounded=0;fontSize=12;startSize=8;endSize=8;curved=1;entryX=0.563;entryY=1.013;entryDx=0;entryDy=0;entryPerimeter=0;exitX=0.315;exitY=0.123;exitDx=0;exitDy=0;exitPerimeter=0;" edge="1" parent="1" source="RdMy14tS3MaUnSTZ-gCo-1" target="ZgNC-Hb89PlPjt8DxBCT-126">
          <mxGeometry width="50" height="50" relative="1" as="geometry">
            <mxPoint x="619" y="920" as="sourcePoint" />
            <mxPoint x="669" y="870" as="targetPoint" />
          </mxGeometry>
        </mxCell>
        <mxCell id="IYJguDjVa9bQlSl0sGfF-3" value="rooms" style="rounded=0;whiteSpace=wrap;html=1;" vertex="1" parent="1">
          <mxGeometry x="451" y="1379" width="109" height="54" as="geometry" />
        </mxCell>
      </root>
    </mxGraphModel>
  </diagram>
</mxfile>
